<svg width="63" height="12" viewBox="0 0 63 12" fill="none" xmlns="http://www.w3.org/2000/svg">
<path fill-rule="evenodd" clip-rule="evenodd" d="M0.0777385 0.232656H2.09894L2.17668 0.310207V4.34291H3.56043C4.15125 1.86125 6.35903 0 9.01769 0C12.1117 0 14.6149 2.52819 14.6149 5.63027C14.6149 8.77888 12.1117 11.3226 9.01769 11.3226C6.2191 11.3226 3.90248 9.24419 3.48269 6.51436H2.17668V11.0124L2.09894 11.0899H0.0777385L0 11.0124V0.310207L0.0777385 0.232656ZM9.01769 2.24901C7.30744 2.24901 5.8304 3.70698 5.8304 5.61476C5.8304 7.56907 7.30744 9.07358 9.01769 9.07358C10.7279 9.07358 12.205 7.56907 12.205 5.61476C12.205 3.70698 10.7279 2.24901 9.01769 2.24901ZM16.5854 0.232656H18.6066L18.6843 0.310207V4.34291H23.6596V0.310207L23.7373 0.232656H25.7586L25.8363 0.310207V11.0124L25.7586 11.0899H23.7373L23.6596 11.0124V6.51436H18.6843V11.0124L18.6066 11.0899H16.5854L16.5076 11.0124V0.310207L16.5854 0.232656ZM27.7291 5.66129C27.7291 2.48166 30.2944 0 33.4817 0C36.669 0 39.2344 2.48166 39.2344 5.66129C39.2344 8.84092 36.669 11.3226 33.4817 11.3226C30.2944 11.3226 27.7291 8.84092 27.7291 5.66129ZM33.4817 2.24901C31.616 2.24901 30.139 3.72249 30.139 5.66129C30.139 7.60009 31.616 9.07358 33.4817 9.07358C35.3475 9.07358 36.8245 7.60009 36.8245 5.66129C36.8245 3.72249 35.3475 2.24901 33.4817 2.24901ZM41.3176 0.232656H43.3388L43.4165 0.310207V4.34291H48.3918V0.310207L48.4695 0.232656H50.4907L50.5685 0.310207V11.0124L50.4907 11.0899H48.4695L48.3918 11.0124V6.51436H43.4165V11.0124L43.3388 11.0899H41.3176L41.2398 11.0124V0.310207L41.3176 0.232656ZM56.5307 0.232656H58.7074L58.7851 0.310207L62.9053 11.0124L62.8275 11.0899H60.4176L60.3399 11.0124L59.5625 8.84092H55.6756L54.8982 11.0124L54.8204 11.0899H52.4105L52.3328 11.0124L56.4529 0.310207L56.5307 0.232656ZM57.619 3.02453L56.3752 6.66947H58.8628L57.619 3.02453Z" fill="#0F4F8C"/>
</svg>
